# xmcd
#
# Track frame offsets:
#	150
#	11366
#	24689
#	39058
#	51769
#	64056
#	75342
#	84333
#	94041
#	102507
#	112543
#	121038
#	129609
#	142734
#
# Disc length: 2071 seconds
#
# Revision: 2
# Processed by: cddbd v1.5.2PL0 Copyright (c) Steve Scherf et al.
# Submitted via: audiograbber 1.83.01
#
DISCID=9608150e
DTITLE=Jim Croce - You Don't Mess Around With Jim (expanded edition, 2006) CD2
DYEAR=1972
DGENRE=Country
TTITLE0=Maybe Tomorrow
TTITLE1=Stone Walls
TTITLE2=Railroad And Riverboats
TTITLE3=(And) I Remember Her
TTITLE4=More Than Tomorrow
TTITLE5=(The) Way We Used To Be
TTITLE6=Cotton Mouth River
TTITLE7=Circle Of Style
TTITLE8=Carnival Of Pride
TTITLE9=Wear Out The Turnpike
TTITLE10=Can't Wait
TTITLE11=(The) Migrant Worker
TTITLE12=Railroad Song
TTITLE13=Child Of Midnight
EXTD=
EXTT0=
EXTT1=
EXTT2=
EXTT3=
EXTT4=
EXTT5=
EXTT6=
EXTT7=
EXTT8=
EXTT9=
EXTT10=
EXTT11=
EXTT12=
EXTT13=
PLAYORDER=
